<?xml version="1.0" encoding="UTF-8" standalone="no"?>
<svg
   xmlns:dc="http://purl.org/dc/elements/1.1/"
   xmlns:cc="http://creativecommons.org/ns#"
   xmlns:rdf="http://www.w3.org/1999/02/22-rdf-syntax-ns#"
   xmlns:svg="http://www.w3.org/2000/svg"
   xmlns="http://www.w3.org/2000/svg"
   viewBox="0 0 499.69199 465.30133"
   height="465.30133"
   width="499.69199"
   xml:space="preserve"
   id="svg2"
   version="1.1"><metadata
     id="metadata8"><rdf:RDF><cc:Work
         rdf:about=""><dc:format>image/svg+xml</dc:format><dc:type
           rdf:resource="http://purl.org/dc/dcmitype/StillImage" /></cc:Work></rdf:RDF></metadata><defs
     id="defs6"><clipPath
       id="clipPath18"
       clipPathUnits="userSpaceOnUse"><path
         id="path16"
         d="M 0,348.976 H 374.769 V 0 H 0 Z" /></clipPath></defs><g
     transform="matrix(1.3333333,0,0,-1.3333333,0,465.30133)"
     id="g10"><g
       id="g12"><g
         clip-path="url(#clipPath18)"
         id="g14"><g
           transform="translate(368.4804,191.2714)"
           id="g20"><path
             id="path22"
             style="fill:#e53063;fill-opacity:1;fill-rule:nonzero;stroke:none"
             d="m 0,0 -56.8,56.797 v 65.611 c 0,11.863 -9.612,21.479 -21.495,21.479 -11.854,0 -21.465,-9.616 -21.465,-21.479 V 99.76 l -42.291,42.291 c -20.911,20.897 -57.262,20.86 -78.125,-0.037 L -362.194,0 c -8.382,-8.4 -8.382,-21.994 0,-30.382 8.389,-8.396 22.008,-8.396 30.393,0 l 142.003,142.018 c 4.625,4.602 12.777,4.602 17.38,0.015 L -30.39,-30.382 c 4.211,-4.196 9.701,-6.287 15.19,-6.287 5.5,0 11,2.091 15.2,6.287 C 8.385,-21.994 8.385,-8.403 0,0" /></g><g
           transform="translate(194.8432,262.1386)"
           id="g24"><path
             id="path26"
             style="fill:#e53063;fill-opacity:1;fill-rule:nonzero;stroke:none"
             d="m 0,0 c -4.122,4.122 -10.805,4.122 -14.919,0 l -124.919,-124.883 c -1.97,-1.969 -3.089,-4.662 -3.089,-7.471 v -91.083 c 0,-21.374 17.329,-38.702 38.701,-38.702 h 61.85 v 95.779 h 69.821 v -95.779 h 61.85 c 21.372,0 38.701,17.328 38.701,38.702 v 91.083 c 0,2.809 -1.109,5.502 -3.088,7.471 z" /></g></g></g></g></svg>