<?xml version="1.0" encoding="UTF-8" standalone="no"?>
<svg
   xmlns:dc="http://purl.org/dc/elements/1.1/"
   xmlns:cc="http://creativecommons.org/ns#"
   xmlns:rdf="http://www.w3.org/1999/02/22-rdf-syntax-ns#"
   xmlns:svg="http://www.w3.org/2000/svg"
   xmlns="http://www.w3.org/2000/svg"
   viewBox="0 0 545.73468 428.78668"
   height="428.78668"
   width="545.73468"
   xml:space="preserve"
   id="svg2"
   version="1.1"><metadata
     id="metadata8"><rdf:RDF><cc:Work
         rdf:about=""><dc:format>image/svg+xml</dc:format><dc:type
           rdf:resource="http://purl.org/dc/dcmitype/StillImage" /></cc:Work></rdf:RDF></metadata><defs
     id="defs6"><clipPath
       id="clipPath18"
       clipPathUnits="userSpaceOnUse"><path
         id="path16"
         d="M 0,321.59 H 409.301 V 0 H 0 Z" /></clipPath></defs><g
     transform="matrix(1.3333333,0,0,-1.3333333,0,428.78667)"
     id="g10"><g
       id="g12"><g
         clip-path="url(#clipPath18)"
         id="g14"><g
           transform="translate(39.2852,222.4612)"
           id="g20"><path
             id="path22"
             style="fill:#e63967;fill-opacity:1;fill-rule:nonzero;stroke:none"
             d="m 0,0 c 5.176,-3.652 20.785,-14.503 46.82,-32.546 26.039,-18.043 45.989,-31.938 59.844,-41.68 1.524,-1.067 4.758,-3.391 9.707,-6.969 4.945,-3.578 9.059,-6.473 12.332,-8.68 3.274,-2.208 7.231,-4.683 11.879,-7.421 4.645,-2.74 9.023,-4.797 13.133,-6.162 4.113,-1.375 7.918,-2.053 11.422,-2.053 h 0.457 c 3.504,0 7.312,0.678 11.422,2.053 4.109,1.365 8.492,3.427 13.132,6.162 4.645,2.742 8.602,5.213 11.878,7.421 3.275,2.207 7.384,5.102 12.333,8.68 4.95,3.582 8.188,5.902 9.707,6.969 14.008,9.742 49.641,34.488 106.895,74.234 11.113,7.762 20.398,17.129 27.859,28.09 7.465,10.961 11.196,22.457 11.196,34.484 0,10.051 -3.618,18.657 -10.852,25.813 -7.234,7.156 -15.801,10.734 -25.695,10.734 H -2.742 c -11.723,0 -20.746,-3.957 -27.066,-11.875 -6.317,-7.918 -9.477,-17.816 -9.477,-29.691 0,-9.594 4.188,-19.988 12.562,-31.18 C -18.351,15.192 -9.441,6.395 0,0" /></g><g
           transform="translate(386.457,198.0242)"
           id="g24"><path
             id="path26"
             style="fill:#e63967;fill-opacity:1;fill-rule:nonzero;stroke:none"
             d="m 0,0 c -49.938,-33.801 -87.859,-60.066 -113.742,-78.801 -8.68,-6.39 -15.719,-11.384 -21.125,-14.957 -5.41,-3.578 -12.598,-7.234 -21.586,-10.961 -8.981,-3.734 -17.352,-5.597 -25.121,-5.597 h -0.461 c -7.766,0 -16.141,1.863 -25.125,5.597 -8.981,3.727 -16.176,7.383 -21.582,10.961 -5.406,3.573 -12.449,8.567 -21.125,14.957 -20.559,15.073 -58.399,41.348 -113.52,78.801 -8.679,5.785 -16.371,12.414 -23.07,19.871 v -181.349 c 0,-10.053 3.578,-18.655 10.734,-25.811 7.157,-7.156 15.762,-10.735 25.813,-10.735 h 336.211 c 10.047,0 18.652,3.579 25.808,10.735 7.161,7.16 10.735,15.758 10.735,25.811 V 19.871 C 16.297,12.566 8.684,5.937 0,0" /></g></g></g></g></svg>