<?xml version="1.0" encoding="UTF-8" standalone="no"?>
<svg
   xmlns:dc="http://purl.org/dc/elements/1.1/"
   xmlns:cc="http://creativecommons.org/ns#"
   xmlns:rdf="http://www.w3.org/1999/02/22-rdf-syntax-ns#"
   xmlns:svg="http://www.w3.org/2000/svg"
   xmlns="http://www.w3.org/2000/svg"
   viewBox="0 0 439.03601 428.35999"
   height="428.35999"
   width="439.03601"
   xml:space="preserve"
   id="svg2"
   version="1.1"><metadata
     id="metadata8"><rdf:RDF><cc:Work
         rdf:about=""><dc:format>image/svg+xml</dc:format><dc:type
           rdf:resource="http://purl.org/dc/dcmitype/StillImage" /></cc:Work></rdf:RDF></metadata><defs
     id="defs6"><clipPath
       id="clipPath18"
       clipPathUnits="userSpaceOnUse"><path
         id="path16"
         d="M 0,321.27 H 329.277 V 0 H 0 Z" /></clipPath></defs><g
     transform="matrix(1.3333333,0,0,-1.3333333,0,428.36)"
     id="g10"><g
       id="g12"><g
         clip-path="url(#clipPath18)"
         id="g14"><g
           transform="translate(227.5165,152.633)"
           id="g20"><path
             id="path22"
             style="fill:#e63967;fill-opacity:1;fill-rule:nonzero;stroke:none"
             d="m 0,0 c -0.641,-0.961 -0.641,-1.921 -0.961,-3.203 -0.321,-4.16 2.883,-8 7.043,-8.32 4.16,-0.316 8,2.883 8.316,7.043 0,0.957 0,1.918 0.32,3.519 v 3.52 c 0,9.281 -1.597,18.238 -4.476,26.879 -3.844,11.199 -10.563,21.121 -18.563,29.441 -9.918,9.918 -22.078,16.961 -35.84,20.801 -6.398,1.598 -13.441,2.559 -20.16,2.559 -2.238,0 -4.48,0 -7.039,-0.321 l -6.718,-0.961 c -4.161,-0.64 -7.043,-4.796 -6.083,-8.64 0.641,-4.156 4.801,-7.039 8.641,-6.078 1.918,0.32 3.52,0.64 5.442,0.64 h 0.957 c 1.601,0 3.203,0.321 4.8,0.321 17.602,0 33.922,-7.039 45.442,-18.883 C -7.36,36.797 -0.321,21.118 0,3.52 Z" /></g><g
           transform="translate(269.7582,145.5901)"
           id="g24"><path
             id="path26"
             style="fill:#e63967;fill-opacity:1;fill-rule:nonzero;stroke:none"
             d="m 0,0 c -0.32,-4.16 2.879,-8 7.039,-8.32 4.16,-0.32 8,2.883 8.32,7.043 0.321,3.52 0.321,7.039 0.321,10.559 0,7.039 -0.641,13.761 -1.602,20.48 C 9.918,55.36 -2.563,78.403 -20.16,96 c -20.16,20.161 -47.043,33.282 -76.801,35.52 -3.199,0.32 -6.723,0.32 -9.922,0.32 -3.52,0 -7.039,0 -10.559,-0.32 -3.519,-0.316 -7.039,-0.637 -10.558,-1.277 -4.16,-0.641 -7.043,-4.801 -6.082,-8.641 0.64,-4.16 4.801,-7.039 8.64,-6.082 2.239,0.32 4.161,0.641 6.399,0.961 0.961,0 1.922,0.32 2.883,0.32 3.199,0.321 6.398,0.321 9.277,0.321 10.883,0 21.121,-1.602 31.039,-4.481 17.281,-5.121 32.641,-14.398 45.121,-26.879 10.242,-10.242 18.563,-22.719 24,-36.16 C -1.922,37.442 0.957,24 0.957,9.922 V 6.723 C 0.316,4.161 0,2.243 0,0" /></g><g
           transform="translate(280.6371,272.3132)"
           id="g28"><path
             id="path30"
             style="fill:#e63967;fill-opacity:1;fill-rule:nonzero;stroke:none"
             d="m 0,0 c -30.403,30.399 -72,48.957 -118.082,48.957 -4.797,0 -9.598,-0.32 -14.399,-0.637 -4.801,-0.32 -9.601,-0.961 -14.398,-1.921 -4.16,-0.641 -7.043,-4.801 -6.082,-8.641 0.64,-4.16 4.801,-7.039 8.64,-6.078 2.239,0.32 4.161,0.64 6.399,0.957 2.242,0.32 4.48,0.64 6.723,0.64 4.476,0.321 8.636,0.641 13.117,0.641 41.601,0 79.359,-16.961 106.883,-44.16 27.199,-27.199 44.16,-64.961 44.16,-106.879 v -7.039 c 0,-1.922 -0.321,-3.84 -0.321,-6.082 -0.32,-4.16 2.879,-8 7.039,-8.32 4.161,-0.321 8,2.881 8.321,7.042 0.32,4.797 0.64,9.598 0.64,14.079 C 48.64,-71.68 30.078,-30.082 0,0" /></g><g
           transform="translate(317.4384,78.3913)"
           id="g32"><path
             id="path34"
             style="fill:#e63967;fill-opacity:1;fill-rule:nonzero;stroke:none"
             d="m 0,0 -56.641,30.402 c -18.883,10.239 -19.52,3.52 -39.359,-17.601 -4.801,-5.121 -13.762,-18.56 -24.321,-16 -22.082,5.44 -63.359,37.758 -76.801,52.479 -6.402,7.04 -33.921,40.642 -34.242,51.521 -0.636,16.64 35.84,24.961 24,56.64 l -25.277,56.641 c -23.68,54.398 -89.922,-32.641 -84.481,-73.281 14.079,-100.16 189.758,-262.082 287.68,-208.642 C -7.68,-55.68 21.757,-13.121 0,0" /></g></g></g></g></svg>