<?xml version="1.0" encoding="UTF-8" standalone="no"?>
<svg
   xmlns:dc="http://purl.org/dc/elements/1.1/"
   xmlns:cc="http://creativecommons.org/ns#"
   xmlns:rdf="http://www.w3.org/1999/02/22-rdf-syntax-ns#"
   xmlns:svg="http://www.w3.org/2000/svg"
   xmlns="http://www.w3.org/2000/svg"
   viewBox="0 0 682.66669 669.02533"
   height="669.02533"
   width="682.66669"
   xml:space="preserve"
   id="svg2"
   version="1.1"><metadata
     id="metadata8"><rdf:RDF><cc:Work
         rdf:about=""><dc:format>image/svg+xml</dc:format><dc:type
           rdf:resource="http://purl.org/dc/dcmitype/StillImage" /></cc:Work></rdf:RDF></metadata><defs
     id="defs6"><clipPath
       id="clipPath18"
       clipPathUnits="userSpaceOnUse"><path
         id="path16"
         d="M 0,501.769 H 512 V 0 H 0 Z" /></clipPath></defs><g
     transform="matrix(1.3333333,0,0,-1.3333333,0,669.02533)"
     id="g10"><g
       id="g12"><g
         clip-path="url(#clipPath18)"
         id="g14"><g
           transform="translate(429.9541,228.8206)"
           id="g20"><path
             id="path22"
             style="fill:#bababa;fill-opacity:1;fill-rule:nonzero;stroke:none"
             d="m 0,0 c 0,4.116 -3.336,7.451 -7.451,7.451 -4.115,0 -7.451,-3.336 -7.451,-7.451 0,-5.217 -4.244,-9.461 -9.461,-9.461 -5.216,0 -9.461,4.244 -9.461,9.461 0,4.116 -3.336,7.451 -7.451,7.451 -4.115,0 -7.451,-3.336 -7.451,-7.451 0,-13.434 10.93,-24.362 24.363,-24.362 C -10.93,-24.362 0,-13.433 0,0" /></g><g
           transform="translate(169.3062,338.6897)"
           id="g24"><path
             id="path26"
             style="fill:#e52f62;fill-opacity:1;fill-rule:nonzero;stroke:none"
             d="m 0,0 c -16.394,16.394 -25.423,38.191 -25.423,61.376 0,23.187 9.029,44.982 25.423,61.376 16.394,16.395 38.192,25.424 61.376,25.424 23.184,0 44.982,-9.029 61.375,-25.424 6.589,-6.588 12.033,-14.106 16.182,-22.343 1.851,-3.676 6.332,-5.156 10.007,-3.304 3.676,1.85 5.155,6.331 3.304,10.006 -4.863,9.66 -11.241,18.466 -18.953,26.18 -19.209,19.209 -44.749,29.788 -71.914,29.788 -27.165,0 -52.705,-10.579 -71.914,-29.788 -19.209,-19.21 -29.788,-44.749 -29.788,-71.914 0,-27.165 10.579,-52.705 29.788,-71.914 5.541,-5.541 11.569,-10.306 17.945,-14.298 0.002,0 0.004,0.001 0.006,0.001 -3.488,-0.906 -6.956,-1.896 -10.397,-2.979 7.306,1.569 21.672,5.038 33.753,7.999 C 19.544,-15.602 9.015,-9.015 0,0" /></g><g
           transform="translate(162.9419,309.78)"
           id="g28"><path
             id="path30"
             style="fill:#bababa;fill-opacity:1;fill-rule:nonzero;stroke:none"
             d="m 0,0 c -3.903,-1.305 -6.009,-5.526 -4.704,-9.43 1.304,-3.903 5.527,-6.009 9.429,-4.705 40.636,13.585 85.396,13.585 126.032,0 0.785,-0.262 1.58,-0.386 2.364,-0.386 3.116,0 6.022,1.972 7.065,5.091 1.305,3.903 -0.801,8.125 -4.704,9.43 -1.123,0.375 -2.25,0.74 -3.379,1.096 H 3.379 C 2.25,0.74 1.124,0.375 0,0" /></g><g
           transform="translate(432.7412,302.343)"
           id="g32"><path
             id="path34"
             style="fill:#000000;fill-opacity:1;fill-rule:nonzero;stroke:none"
             d="M 0,0 V 0.001 0.002 Z" /></g><g
           transform="translate(166.3208,310.8757)"
           id="g36"><path
             id="path38"
             style="fill:#000000;fill-opacity:1;fill-rule:nonzero;stroke:none"
             d="M 0,0 V 0 C 0.001,0 0.001,0 0.002,0 0.001,0 0,0 0,0" /></g><g
           transform="translate(200.6938,318.6399)"
           id="g40"><path
             id="path42"
             style="fill:#bababa;fill-opacity:1;fill-rule:nonzero;stroke:none"
             d="m 0,0 c -0.207,0.076 -0.412,0.158 -0.618,0.236 -12.08,-2.962 -26.446,-6.43 -33.753,-8 -10e-4,0 -10e-4,0 -0.002,0 H 94.351 c -1.104,0.347 -2.213,0.685 -3.322,1.014 L 58.587,0.183 C 39.165,2.779 19.407,2.723 0,0" /></g><g
           transform="translate(332.2812,395.49)"
           id="g44"><path
             id="path46"
             style="fill:#e52f62;fill-opacity:1;fill-rule:nonzero;stroke:none"
             d="m 0,0 c 0.184,4.112 -2.999,7.594 -7.111,7.777 -4.101,0.204 -7.594,-2.998 -7.778,-7.11 -0.97,-21.691 -9.968,-42.1 -25.335,-57.467 -9.18,-9.181 -19.93,-15.85 -31.387,-20.05 -0.463,0.065 -0.926,0.121 -1.389,0.183 l 32.441,-6.934 c -2.348,0.696 -4.708,1.352 -7.076,1.967 0.002,0 0.004,-0.001 0.006,-0.001 6.377,3.992 12.403,8.757 17.944,14.298 3.873,3.873 7.373,8.037 10.532,12.416 l 10.716,18.73 C -3.473,-24.854 -0.565,-12.617 0,0" /></g><g
           transform="translate(20.9209,240.8831)"
           id="g48"><path
             id="path50"
             style="fill:#bababa;fill-opacity:1;fill-rule:nonzero;stroke:none"
             d="m 0,0 c -0.771,1.59 1.049,4.385 2.203,5.911 1.829,2.416 3.514,2.91 4.787,2.91 0.269,0 0.52,-0.022 0.75,-0.053 3.426,-0.457 8.226,-4.227 10.769,-10.548 0.599,-1.489 1.377,-3.953 1.559,-7.027 C 9.753,-6.669 1.739,-3.588 0,0 M 400.357,82.728 C 397.489,58.202 389.796,37.222 382.066,32.844 373.28,27.867 352.995,26.906 337.765,38.047 322.518,49.201 317.442,69.259 323.087,96.053 v 0.001 c 0.567,2.691 2.479,5.019 5.114,6.225 37.304,17.076 58.811,22.661 66.801,22.661 1.206,0 2.104,-0.127 2.702,-0.361 2.4,-2.557 5.548,-17.099 2.653,-41.851 m 71.166,-88.557 -20.972,6.718 c -2.686,0.861 -4.803,3.005 -5.662,5.736 -4.42,14.053 -11.09,27.246 -19.825,39.214 -3.981,5.455 -8.408,10.664 -13.244,15.622 v -10e-4 0.002 -0.001 c 3.094,13.573 4.776,28.935 4.558,42.206 -0.312,18.985 -4.106,30.12 -11.598,34.044 -4.035,2.116 -16.315,8.544 -82.782,-21.882 -1.574,-0.72 -3.044,-1.607 -4.405,-2.623 -4.481,1.204 -9.061,2.318 -13.669,3.318 -0.555,0.121 -1.127,0.228 -1.686,0.346 0.235,0.513 0.459,1.029 0.686,1.546 l -10.717,-18.73 c 0.839,1.164 1.667,2.334 2.455,3.528 2.054,-0.399 4.093,-0.817 6.102,-1.253 2.676,-0.581 5.34,-1.205 7.98,-1.86 -0.083,-0.324 -0.168,-0.647 -0.237,-0.976 -3.634,-17.245 -3.398,-32.497 0.701,-45.33 3.684,-11.535 10.333,-20.88 19.76,-27.777 11.111,-8.128 24.525,-11.639 36.677,-11.639 9.144,0 17.575,1.99 23.767,5.497 7.004,3.967 12.872,12.326 17.517,24.876 2.147,-2.506 4.182,-5.073 6.1,-7.701 7.777,-10.654 13.714,-22.396 17.646,-34.898 2.309,-7.343 8.041,-13.121 15.332,-15.458 l 20.972,-6.718 c 5.503,-1.763 9.2,-6.829 9.2,-12.606 v -34.775 c 0,-5.779 -3.697,-10.843 -9.2,-12.606 L 433.19,-90.833 c -5.406,-1.733 -9.981,-5.448 -12.881,-10.462 -13.276,-22.942 -34.147,-41.927 -62.038,-56.428 -3.222,-1.677 -5.454,-4.676 -6.125,-8.23 l -10.823,-57.303 c -0.299,-1.579 -1.681,-2.724 -3.289,-2.724 h -35.187 c -1.607,0 -2.99,1.146 -3.288,2.724 l -5.995,31.669 c -1.18,6.231 -7.024,10.37 -13.314,9.417 -15.157,-2.292 -30.774,-3.453 -46.418,-3.453 -11.638,0 -23.127,0.649 -34.15,1.93 -6.095,0.701 -11.773,-3.454 -12.912,-9.472 l -5.696,-30.091 c -0.299,-1.579 -1.682,-2.724 -3.289,-2.724 h -35.187 c -1.607,0 -2.99,1.146 -3.293,2.748 l -10.42,54.122 c -0.671,3.487 -2.861,6.452 -6.012,8.134 -47.544,25.383 -72.674,67.786 -72.674,122.626 0,27.708 6.062,52.209 18.017,72.825 11.156,19.239 27.45,35.146 48.429,47.281 3.562,2.061 4.779,6.619 2.719,10.182 -2.06,3.562 -6.618,4.777 -10.181,2.719 C 68.504,71.126 43.969,34.821 37.214,-11.288 v 10e-4 c -0.717,0.065 -1.435,0.127 -2.15,0.201 0.13,4.975 -0.77,9.995 -2.73,14.867 C 28.011,14.527 19.131,22.283 9.71,23.54 2.286,24.534 -4.779,21.382 -9.682,14.904 c -7.109,-9.394 -5.95,-16.828 -3.727,-21.41 3.753,-7.733 13.4,-13.203 29.409,-16.642 -0.44,-0.659 -0.924,-1.321 -1.454,-1.986 -9.459,-11.863 -20.603,-14.486 -27.839,-14.733 -4.236,-0.144 -7.628,-3.545 -7.628,-7.784 v -0.037 c 0,-4.18 3.299,-7.59 7.476,-7.781 0.535,-0.025 1.094,-0.038 1.676,-0.038 9.156,0 23.851,3.377 37.969,21.08 2.229,2.794 4.045,5.742 5.441,8.788 1.406,-0.159 2.757,-0.296 4.051,-0.415 0,0.003 0,0.005 10e-4,0.008 -0.254,-4.038 -0.395,-8.135 -0.395,-12.305 0,-31.027 7.397,-58.692 21.984,-82.229 13.45,-21.7 32.707,-39.468 57.255,-52.83 l 10.13,-52.616 c 1.629,-8.608 9.17,-14.856 17.931,-14.856 h 35.187 c 8.761,0 16.302,6.248 17.931,14.856 l 5.15,27.208 c 10.696,-1.133 21.77,-1.707 32.965,-1.707 15.36,0 30.702,1.07 45.654,3.182 l 5.429,-28.685 c 1.63,-8.608 9.171,-14.855 17.931,-14.855 h 35.187 c 8.761,0 16.302,6.248 17.932,14.859 l 10.537,55.791 c 29.769,15.741 52.206,36.419 66.704,61.475 1.045,1.806 2.654,3.131 4.53,3.732 l 33.788,10.823 c 11.697,3.749 19.556,14.518 19.556,26.801 v 34.775 c 0,12.282 -7.859,23.051 -19.556,26.798" /></g><g
           transform="translate(223.2173,404.3533)"
           id="g52"><path
             id="path54"
             style="fill:#e52f62;fill-opacity:1;fill-rule:nonzero;stroke:none"
             d="m 0,0 h 7.951 c 2.752,0 5.376,0.33 7.875,0.994 2.496,0.662 4.663,1.706 6.498,3.134 1.835,1.427 3.287,3.338 4.358,5.734 1.07,2.394 1.606,5.276 1.606,8.639 0,6.217 -1.683,10.627 -5.046,13.227 -3.365,2.599 -7.699,3.899 -12.997,3.899 -2.041,0 -3.976,-0.077 -5.811,-0.23 C 2.599,35.245 1.12,35.065 0,34.862 Z m -31.346,-0.459 h 12.079 v 50.306 c 4.282,0.815 8.716,1.453 13.304,1.911 4.587,0.459 9.427,0.689 14.526,0.689 5.299,0 10.397,-0.459 15.29,-1.377 4.893,-0.917 9.174,-2.599 12.844,-5.046 3.67,-2.446 6.599,-5.81 8.793,-10.091 2.19,-4.282 3.287,-9.786 3.287,-16.514 0,-6.219 -1.07,-11.468 -3.211,-15.75 -2.141,-4.281 -4.996,-7.774 -8.563,-10.474 -3.569,-2.702 -7.645,-4.639 -12.232,-5.81 -4.587,-1.173 -9.38,-1.759 -14.374,-1.759 H 0 v -8.868 H 24.465 V -37.156 H 0 v -18.961 h -19.267 v 18.961 h -12.079 v 13.914 h 12.079 v 8.868 h -12.079 z" /></g></g></g></g></svg>