<?xml version="1.0" encoding="UTF-8" standalone="no"?>
<svg
   xmlns:dc="http://purl.org/dc/elements/1.1/"
   xmlns:cc="http://creativecommons.org/ns#"
   xmlns:rdf="http://www.w3.org/1999/02/22-rdf-syntax-ns#"
   xmlns:svg="http://www.w3.org/2000/svg"
   xmlns="http://www.w3.org/2000/svg"
   viewBox="0 0 512 519.80402"
   height="519.80402"
   width="512"
   xml:space="preserve"
   id="svg2"
   version="1.1"><metadata
     id="metadata8"><rdf:RDF><cc:Work
         rdf:about=""><dc:format>image/svg+xml</dc:format><dc:type
           rdf:resource="http://purl.org/dc/dcmitype/StillImage" /></cc:Work></rdf:RDF></metadata><defs
     id="defs6"><clipPath
       id="clipPath18"
       clipPathUnits="userSpaceOnUse"><path
         id="path16"
         d="M 0,389.853 H 384 V 0 H 0 Z" /></clipPath></defs><g
     transform="matrix(1.3333333,0,0,-1.3333333,0,519.804)"
     id="g10"><g
       id="g12"><g
         clip-path="url(#clipPath18)"
         id="g14"><g
           transform="translate(172.801,332.2514)"
           id="g20"><path
             id="path22"
             style="fill:#dedede;fill-opacity:1;fill-rule:nonzero;stroke:none"
             d="m 0,0 c 14.136,0 25.601,-11.461 25.601,-25.597 0,-14.141 -11.465,-25.602 -25.601,-25.602 -3.528,0 -7.016,0.738 -10.239,2.164 -3.242,1.414 -7.015,-0.066 -8.426,-3.305 -0.355,-0.808 -0.535,-1.679 -0.535,-2.558 v -40.57 h -32.5 c 0.321,1.941 0.489,3.902 0.5,5.871 v 0.531 c 0,21.207 -17.191,38.398 -38.402,38.398 -21.207,0 -38.398,-17.191 -38.398,-38.398 v -0.531 c 0.011,-1.969 0.179,-3.93 0.5,-5.871 H -160 V 12.801 c 0.019,17.664 14.335,31.981 32,32 H -19.2 V 3.699 c 0,-3.531 2.868,-6.398 6.403,-6.394 0.879,0 1.75,0.184 2.558,0.535 C -7.016,-0.734 -3.528,0.004 0,0 M 102.398,57.602 H -128 c -24.731,-0.031 -44.77,-20.07 -44.801,-44.801 v -229.867 c 0.031,-24.731 20.07,-44.77 44.801,-44.801 h 70.398 v 12.801 H -128 c -17.665,0.019 -31.981,14.336 -32,32 v 108.269 h 41.101 c 3.793,0.278 6.641,3.575 6.363,7.368 -0.05,0.734 -0.222,1.453 -0.5,2.128 -5.691,12.946 0.192,28.047 13.137,33.735 12.942,5.691 28.047,-0.192 33.734,-13.137 2.883,-6.562 2.883,-14.035 0,-20.598 -1.582,-3.308 -0.179,-7.269 3.129,-8.851 0.852,-0.406 1.786,-0.629 2.735,-0.649 H -19.2 v -38.398 c -2.117,0.359 -4.257,0.539 -6.402,0.531 -21.207,0.008 -38.402,-17.18 -38.414,-38.387 -0.004,-15.277 9.051,-29.105 23.055,-35.215 l 5.121,11.727 c -12.965,5.641 -18.903,20.723 -13.266,33.688 4.07,9.351 13.305,15.398 23.504,15.387 3.527,0 7.016,-0.735 10.242,-2.165 3.238,-1.41 7.012,0.067 8.426,3.309 0.352,0.804 0.531,1.676 0.535,2.554 v 46.973 h 32.543 c -0.363,-2.113 -0.547,-4.257 -0.543,-6.402 0.035,-18.234 12.86,-33.942 30.719,-37.633 l 2.558,12.539 c -11.906,2.465 -20.453,12.938 -20.48,25.094 0,3.527 0.738,7.016 2.164,10.242 1.414,3.239 -0.066,7.012 -3.305,8.426 C 36.449,-96.179 35.582,-96 34.699,-96 H -6.399 v 32.547 C -4.286,-63.82 -2.145,-64 0,-64 c 21.207,0 38.398,17.196 38.398,38.403 0,21.207 -17.191,38.398 -38.398,38.398 -2.145,0.004 -4.286,-0.18 -6.399,-0.543 v 32.543 h 108.797 c 17.664,-0.019 31.98,-14.336 32,-32 V -96 H 93.3 c -3.535,0 -6.398,-2.867 -6.398,-6.402 0,-0.879 0.183,-1.75 0.535,-2.555 1.426,-3.226 2.164,-6.715 2.164,-10.242 h 12.797 c 0.004,2.145 -0.18,4.289 -0.543,6.402 H 140.8 c 3.535,0 6.399,2.864 6.399,6.399 V 12.801 c -0.031,24.731 -20.071,44.77 -44.801,44.801" /></g><g
           transform="translate(324.3469,94.3657)"
           id="g24"><path
             id="path26"
             style="fill:#e63967;fill-opacity:1;fill-rule:nonzero;stroke:none"
             d="M 0,0 C 1.766,-4.7 2.407,-9.747 1.868,-14.739 L -18.906,6.026 c -8.574,8.797 -22.656,8.974 -31.449,0.399 -8.797,-8.574 -8.973,-22.656 -0.398,-31.449 0.132,-0.133 0.261,-0.266 0.398,-0.399 l 20.242,-20.242 -90.445,-34.066 -12.199,32.593 c -0.758,2.028 -2.489,3.532 -4.602,4 -0.453,0.102 -0.922,0.153 -1.387,0.157 -1.675,0 -3.285,-0.657 -4.48,-1.825 -10.277,-9.711 -26.481,-9.25 -36.192,1.028 -9.707,10.278 -9.25,26.48 1.032,36.187 2.414,2.285 5.254,4.074 8.355,5.274 2.039,0.757 4.168,1.238 6.332,1.433 1.328,0.164 2.672,0.207 4.012,0.137 3.527,-0.188 6.543,2.523 6.726,6.055 0.047,0.879 -0.089,1.754 -0.398,2.578 l -16.715,44.633 30.477,11.476 c 4,-20.827 24.125,-34.469 44.953,-30.469 2.129,0.407 4.219,0.996 6.246,1.758 19.848,7.528 29.879,29.68 22.445,49.563 -0.59,1.574 -1.121,2.821 -1.632,3.933 l 29.441,13.039 z m 45.965,20.401 -53.804,37.051 -20.668,55.212 c -1.231,3.315 -4.918,5 -8.231,3.765 -0.117,-0.043 -0.234,-0.091 -0.351,-0.14 L -78.687,97.886 c -3.121,-1.375 -4.613,-4.957 -3.395,-8.141 0.692,-1.789 1.34,-3.148 2.024,-4.555 0.683,-1.41 1.316,-2.726 2.094,-4.808 4.964,-13.274 -1.723,-28.067 -14.973,-33.106 -13.242,-4.953 -27.992,1.767 -32.945,15.008 -1.243,3.324 -1.782,6.867 -1.582,10.406 0.187,3.532 -2.524,6.543 -6.055,6.728 -0.883,0.046 -1.77,-0.091 -2.598,-0.403 l -44.465,-16.75 c -3.304,-1.243 -4.976,-4.926 -3.738,-8.231 l 15.961,-42.644 c -2.117,-0.383 -4.195,-0.957 -6.207,-1.715 -19.918,-7.422 -30.047,-29.582 -22.625,-49.496 7.422,-19.918 29.586,-30.047 49.5,-22.625 2.051,0.765 4.031,1.703 5.922,2.804 l 11.445,-30.565 c 1.239,-3.314 4.926,-4.989 8.239,-3.75 0.003,0.003 0.007,0.003 0.011,0.003 l 63.41,23.894 c 3.985,-8.562 11.313,-15.109 20.27,-18.101 L -34.351,-76 c -5.274,1.776 -9.656,5.522 -12.234,10.456 l 19.292,7.266 c 6.34,-17.828 23.227,-29.727 42.145,-29.703 v 12.8 c -17.625,0.106 -31.891,14.371 -32,32 0,1.696 -0.672,3.325 -1.875,4.524 l -22.285,22.285 c -3.301,3.332 -3.676,8.578 -0.875,12.348 1.629,2.199 4.148,3.57 6.879,3.75 2.738,0.23 5.433,-0.778 7.347,-2.747 l 44.684,-44.686 9.051,9.05 -13.223,13.222 c 3.258,9.743 3.059,20.309 -0.57,29.922 L -0.007,36.519 38.668,9.886 c 5.125,-3.598 8.18,-9.465 8.184,-15.731 V -88.513 H 59.653 V -5.845 C 59.645,4.616 54.536,14.409 45.965,20.401" /></g></g></g></g></svg>