<?xml version="1.0" encoding="UTF-8" standalone="no"?>
<svg
   xmlns:dc="http://purl.org/dc/elements/1.1/"
   xmlns:cc="http://creativecommons.org/ns#"
   xmlns:rdf="http://www.w3.org/1999/02/22-rdf-syntax-ns#"
   xmlns:svg="http://www.w3.org/2000/svg"
   xmlns="http://www.w3.org/2000/svg"
   viewBox="0 0 509.724 545.91602"
   height="545.91602"
   width="509.724"
   xml:space="preserve"
   id="svg2"
   version="1.1"><metadata
     id="metadata8"><rdf:RDF><cc:Work
         rdf:about=""><dc:format>image/svg+xml</dc:format><dc:type
           rdf:resource="http://purl.org/dc/dcmitype/StillImage" /></cc:Work></rdf:RDF></metadata><defs
     id="defs6"><clipPath
       id="clipPath18"
       clipPathUnits="userSpaceOnUse"><path
         id="path16"
         d="M 0,409.437 H 382.293 V 0 H 0 Z" /></clipPath></defs><g
     transform="matrix(1.3333333,0,0,-1.3333333,0,545.916)"
     id="g10"><g
       id="g12"><g
         clip-path="url(#clipPath18)"
         id="g14"><g
           transform="translate(232.1097,266.234)"
           id="g20"><path
             id="path22"
             style="fill:#e63967;fill-opacity:1;fill-rule:nonzero;stroke:none"
             d="M 0,0 C 0,-3.77 3.051,-6.828 6.824,-6.828 H 75.09 c 3.777,0 6.828,3.058 6.828,6.828 0,3.769 -3.051,6.828 -6.828,6.828 H 6.824 C 3.051,6.828 0,3.769 0,0" /></g><g
           transform="translate(273.0667,225.2731)"
           id="g24"><path
             id="path26"
             style="fill:#e63967;fill-opacity:1;fill-rule:nonzero;stroke:none"
             d="m 0,0 c 0,-3.766 3.055,-6.824 6.828,-6.824 h 40.961 c 3.774,0 6.824,3.058 6.824,6.824 0,3.769 -3.05,6.828 -6.824,6.828 H 6.828 C 3.055,6.828 0,3.769 0,0" /></g><g
           transform="translate(266.2425,300.3668)"
           id="g28"><path
             id="path30"
             style="fill:#e63967;fill-opacity:1;fill-rule:nonzero;stroke:none"
             d="m 0,0 c 3.773,0 6.824,3.058 6.824,6.828 0,3.765 -3.051,6.824 -6.824,6.824 h -13.656 c -3.774,0 -6.824,-3.059 -6.824,-6.824 0,-3.77 3.05,-6.828 6.824,-6.828 z" /></g><g
           transform="translate(184.3211,232.1012)"
           id="g32"><path
             id="path34"
             style="fill:#e63967;fill-opacity:1;fill-rule:nonzero;stroke:none"
             d="m 0,0 c -3.774,0 -6.825,-3.059 -6.825,-6.828 0,-3.766 3.051,-6.824 6.825,-6.824 h 68.265 c 3.777,0 6.828,3.058 6.828,6.824 0,3.769 -3.051,6.828 -6.828,6.828 z" /></g><g
           transform="translate(218.4534,40.9532)"
           id="g36"><path
             id="path38"
             style="fill:#cdcdcd;fill-opacity:1;fill-rule:nonzero;stroke:none"
             d="m 0,0 h -129.704 c -11.293,0 -20.48,9.19 -20.48,20.479 v 314.028 c 0,3.77 -3.05,6.829 -6.827,6.829 -18.822,0 -34.134,-15.313 -34.134,-34.133 0,-3.77 3.052,-6.828 6.825,-6.828 3.777,0 6.828,3.058 6.828,6.828 0,8.901 5.706,16.492 13.653,19.312 V 20.479 c 0,-18.819 15.312,-34.132 34.135,-34.132 H 0 c 3.777,0 6.828,3.058 6.828,6.828 C 6.828,-3.06 3.777,0 0,0" /></g><g
           transform="translate(116.055,259.4059)"
           id="g40"><path
             id="path42"
             style="fill:#e63967;fill-opacity:1;fill-rule:nonzero;stroke:none"
             d="m 0,0 h 95.574 c 3.774,0 6.824,3.058 6.824,6.828 0,3.769 -3.05,6.828 -6.824,6.828 H 0 c -3.777,0 -6.828,-3.059 -6.828,-6.828 C -6.828,3.058 -3.777,0 0,0" /></g><g
           transform="translate(116.055,300.3668)"
           id="g44"><path
             id="path46"
             style="fill:#e63967;fill-opacity:1;fill-rule:nonzero;stroke:none"
             d="m 0,0 h 27.305 c 3.777,0 6.828,3.058 6.828,6.828 0,3.765 -3.051,6.824 -6.828,6.824 L 0,13.652 c -3.777,0 -6.828,-3.059 -6.828,-6.824 C -6.828,3.058 -3.777,0 0,0" /></g><g
           transform="translate(225.2816,314.0231)"
           id="g48"><path
             id="path50"
             style="fill:#e63967;fill-opacity:1;fill-rule:nonzero;stroke:none"
             d="m 0,0 h -54.614 c -3.777,0 -6.827,-3.059 -6.827,-6.828 0,-3.77 3.05,-6.828 6.827,-6.828 H 0 c 3.773,0 6.824,3.058 6.824,6.828 C 6.828,-3.059 3.773,0 0,0" /></g><g
           transform="translate(320.8558,409.4371)"
           id="g52"><path
             id="path54"
             style="fill:#cdcdcd;fill-opacity:1;fill-rule:nonzero;stroke:none"
             d="m 0,0 h -259.414 c -33.801,0 -61.313,-27.437 -61.442,-61.199 v -0.324 c 0.09,-21.77 11.84,-42.051 30.715,-52.973 3.262,-1.883 7.434,-0.774 9.324,2.484 1.899,3.262 0.77,7.442 -2.484,9.325 -14.719,8.527 -23.871,24.351 -23.898,41.328 0.046,26.312 21.461,47.707 47.785,47.707 H 0 c 26.344,0 47.785,-21.438 47.785,-47.789 v -286.72 c 0,-3.461 -0.969,-6.937 -2.793,-10.034 -1.902,-3.25 -0.824,-7.434 2.426,-9.345 1.09,-0.644 2.277,-0.944 3.453,-0.944 2.34,0 4.621,1.203 5.891,3.367 3.058,5.195 4.676,11.058 4.676,16.956 v 286.72 C 61.438,-27.559 33.879,0 0,0" /></g><g
           transform="translate(300.3753,68.2609)"
           id="g56"><path
             id="path58"
             style="fill:#cdcdcd;fill-opacity:1;fill-rule:nonzero;stroke:none"
             d="m 0,0 c -15.059,0 -27.309,12.246 -27.309,27.305 0,15.062 12.25,27.309 27.309,27.309 15.059,0 27.305,-12.247 27.305,-27.309 C 27.305,12.246 15.059,0 0,0 M 40.961,27.305 C 40.961,49.896 22.59,68.267 0,68.267 c -22.59,0 -40.961,-18.371 -40.961,-40.962 0,-22.59 18.371,-40.957 40.961,-40.957 22.59,0 40.961,18.367 40.961,40.957" /></g><g
           transform="translate(288.0511,47.7726)"
           id="g60"><path
             id="path62"
             style="fill:#cdcdcd;fill-opacity:1;fill-rule:nonzero;stroke:none"
             d="m 0,0 c -3.254,1.888 -7.434,0.767 -9.324,-2.495 l -14.699,-25.474 -2.332,3.525 c -1.18,1.797 -3.141,2.928 -5.286,3.049 l -4.218,0.254 14.945,25.871 c 1.883,3.266 0.762,7.443 -2.5,9.33 -3.262,1.889 -7.441,0.768 -9.332,-2.5 l -20.461,-35.439 c -1.18,-2.047 -1.215,-4.565 -0.094,-6.647 1.118,-2.082 3.235,-3.443 5.606,-3.579 l 11.828,-0.708 6.535,-9.894 c 1.262,-1.918 3.406,-3.063 5.691,-3.063 h 0.215 c 2.352,0.076 4.516,1.365 5.707,3.412 L 2.508,-9.323 C 4.391,-6.062 3.273,-1.883 0,0" /></g><g
           transform="translate(345.6214,59.0109)"
           id="g64"><path
             id="path66"
             style="fill:#cdcdcd;fill-opacity:1;fill-rule:nonzero;stroke:none"
             d="m 0,0 c -1.891,3.271 -6.074,4.392 -9.324,2.496 -3.27,-1.882 -4.391,-6.061 -2.508,-9.324 l 14.77,-25.551 -4.223,-0.254 c -2.141,-0.128 -4.102,-1.261 -5.289,-3.05 l -2.321,-3.524 -14.621,25.344 c -1.898,3.262 -6.078,4.384 -9.332,2.496 -3.265,-1.883 -4.382,-6.062 -2.5,-9.323 l 20.153,-34.907 c 1.187,-2.047 3.351,-3.336 5.707,-3.414 h 0.211 c 2.281,0 4.429,1.148 5.699,3.066 l 6.527,9.883 11.824,0.718 c 2.372,0.137 4.485,1.497 5.606,3.579 1.121,2.082 1.078,4.597 -0.094,6.648 z" /></g><g
           transform="translate(116.055,218.4489)"
           id="g68"><path
             id="path70"
             style="fill:#e63967;fill-opacity:1;fill-rule:nonzero;stroke:none"
             d="m 0,0 h 40.961 c 3.773,0 6.824,3.058 6.824,6.824 0,3.769 -3.051,6.828 -6.824,6.828 L 0,13.652 c -3.777,0 -6.828,-3.059 -6.828,-6.828 C -6.828,3.058 -3.777,0 0,0" /></g><g
           transform="translate(116.055,177.4884)"
           id="g72"><path
             id="path74"
             style="fill:#e63967;fill-opacity:1;fill-rule:nonzero;stroke:none"
             d="m 0,0 h 81.918 c 3.777,0 6.828,3.058 6.828,6.823 0,3.771 -3.051,6.828 -6.828,6.828 H 0 c -3.777,0 -6.828,-3.057 -6.828,-6.828 C -6.828,3.058 -3.777,0 0,0" /></g><g
           transform="translate(116.7781,92.5148)"
           id="g76"><path
             id="path78"
             style="fill:#cdcdcd;fill-opacity:1;fill-rule:nonzero;stroke:none"
             d="m 0,0 c 1.679,-3.371 5.781,-4.737 9.156,-3.058 3.371,1.687 4.742,5.789 3.051,9.164 -6.758,13.515 -8.274,25.64 -4.071,32.445 2.239,3.625 6.145,5.462 11.621,5.462 3.254,0 4.469,-1.117 5.235,-2.212 5.086,-7.332 0.254,-29.659 -4.805,-43.18 -1.129,-3.008 0,-6.393 2.703,-8.136 2.688,-1.727 6.246,-1.352 8.52,0.914 2.914,2.911 6.074,5.812 8.828,8.164 v -3.335 c 0,-2.759 1.656,-5.25 4.211,-6.302 2.551,-1.066 5.48,-0.477 7.441,1.473 3.121,3.114 6.739,6.164 9.782,8.364 -0.082,-0.173 -0.165,-0.337 -0.247,-0.492 -1.043,-2.115 -0.929,-4.629 0.317,-6.633 1.25,-2.009 3.441,-3.239 5.801,-3.239 h 27.308 c 3.774,0 6.824,3.058 6.824,6.829 0,3.764 -3.05,6.823 -6.824,6.823 H 77.082 c 0.55,3.25 0.414,6.555 -1.231,9.22 -1.742,2.815 -4.773,4.436 -8.308,4.436 -4.219,0 -9.18,-2.565 -13.715,-5.75 -0.348,2.978 -2.11,5.43 -4.785,6.535 -1.821,0.75 -4.172,1.732 -9.871,-1.686 2.246,11.761 2.902,25.319 -2.958,33.768 -2.558,3.697 -7.488,8.09 -16.457,8.09 C 9.531,57.664 1.277,53.426 -3.481,45.728 -10.286,34.707 -9.024,18.043 0,0" /></g><g
           transform="translate(300.3753,184.3116)"
           id="g80"><path
             id="path82"
             style="fill:#e63967;fill-opacity:1;fill-rule:nonzero;stroke:none"
             d="m 0,0 c 0,3.771 -3.051,6.828 -6.828,6.828 h -68.266 c -3.773,0 -6.824,-3.057 -6.824,-6.828 0,-3.766 3.051,-6.823 6.824,-6.823 H -6.828 C -3.051,-6.823 0,-3.766 0,0" /></g></g></g></g></svg>