<?xml version="1.0" encoding="UTF-8" standalone="no"?>
<svg
   xmlns:dc="http://purl.org/dc/elements/1.1/"
   xmlns:cc="http://creativecommons.org/ns#"
   xmlns:rdf="http://www.w3.org/1999/02/22-rdf-syntax-ns#"
   xmlns:svg="http://www.w3.org/2000/svg"
   xmlns="http://www.w3.org/2000/svg"
   viewBox="0 0 546.16132 546.13464"
   height="546.13464"
   width="546.16132"
   xml:space="preserve"
   id="svg2"
   version="1.1"><metadata
     id="metadata8"><rdf:RDF><cc:Work
         rdf:about=""><dc:format>image/svg+xml</dc:format><dc:type
           rdf:resource="http://purl.org/dc/dcmitype/StillImage" /></cc:Work></rdf:RDF></metadata><defs
     id="defs6"><clipPath
       id="clipPath18"
       clipPathUnits="userSpaceOnUse"><path
         id="path16"
         d="M 0,409.601 H 409.621 V 0 H 0 Z" /></clipPath></defs><g
     transform="matrix(1.3333333,0,0,-1.3333333,0,546.13467)"
     id="g10"><g
       id="g12"><g
         clip-path="url(#clipPath18)"
         id="g14"><g
           transform="translate(78.5122,139.7572)"
           id="g20"><path
             id="path22"
             style="fill:#e63967;fill-opacity:1;fill-rule:nonzero;stroke:none"
             d="m 0,0 -48.578,-28.035 c -3.262,-1.883 -4.379,-6.055 -2.496,-9.328 1.261,-2.187 3.554,-3.41 5.917,-3.41 1.153,0 2.329,0.293 3.407,0.914 l 48.578,28.027 c 3.262,1.887 4.383,6.062 2.5,9.328 C 7.441,0.766 3.265,1.887 0,0" /></g><g
           transform="translate(95.5781,204.7958)"
           id="g24"><path
             id="path26"
             style="fill:#e63967;fill-opacity:1;fill-rule:nonzero;stroke:none"
             d="M 0,0 C 0,3.77 -3.055,6.825 -6.824,6.825 L -88.75,6.832 c -3.769,0 -6.828,-3.058 -6.828,-6.824 0,-3.777 3.059,-6.828 6.828,-6.828 L -6.824,-6.828 C -3.055,-6.828 0,-3.769 0,0" /></g><g
           transform="translate(116.9877,343.2528)"
           id="g28"><path
             id="path30"
             style="fill:#e63967;fill-opacity:1;fill-rule:nonzero;stroke:none"
             d="m 0,0 c 1.266,-2.191 3.559,-3.414 5.918,-3.414 1.156,0 2.336,0.297 3.406,0.914 3.266,1.887 4.383,6.063 2.5,9.329 L -5.258,36.414 c -1.89,3.262 -6.066,4.387 -9.324,2.497 -3.269,-1.883 -4.383,-6.063 -2.5,-9.325 z" /></g><g
           transform="translate(29.9409,297.8778)"
           id="g32"><path
             id="path34"
             style="fill:#e63967;fill-opacity:1;fill-rule:nonzero;stroke:none"
             d="m 0,0 69.051,-39.882 c 1.074,-0.621 2.246,-0.914 3.406,-0.914 2.364,0 4.657,1.222 5.922,3.414 1.883,3.261 0.77,7.441 -2.5,9.316 L 6.829,11.825 C 3.571,13.715 -0.621,12.594 -2.5,9.325 -4.382,6.063 -3.269,1.883 0,0" /></g><g
           transform="translate(301.2968,260.496)"
           id="g36"><path
             id="path38"
             style="fill:#e63967;fill-opacity:1;fill-rule:nonzero;stroke:none"
             d="m 0,0 c 1.262,-2.192 3.555,-3.414 5.918,-3.414 1.152,0 2.328,0.293 3.406,0.914 l 69.067,39.867 c 3.269,1.89 4.378,6.062 2.496,9.332 -1.883,3.262 -6.063,4.383 -9.325,2.5 L 2.496,9.324 C -0.774,7.441 -1.887,3.261 0,0" /></g><g
           transform="translate(283.312,340.7572)"
           id="g40"><path
             id="path42"
             style="fill:#e63967;fill-opacity:1;fill-rule:nonzero;stroke:none"
             d="m 0,0 c 1.079,-0.621 2.254,-0.914 3.407,-0.914 2.363,0 4.656,1.219 5.918,3.41 l 17.082,29.59 c 1.883,3.262 0.765,7.438 -2.5,9.324 -3.278,1.891 -7.442,0.766 -9.324,-2.5 L -2.5,9.325 C -4.382,6.059 -3.269,1.883 0,0" /></g><g
           transform="translate(275.2299,13.308)"
           id="g44"><path
             id="path46"
             style="fill:#cdcdcd;fill-opacity:1;fill-rule:nonzero;stroke:none"
             d="M 0,0 C -0.183,0.062 -19.093,6.457 -31.464,18.828 -43.726,31.09 -49.945,43.246 -49.945,54.961 V 177.84 c 0,1.402 0.289,13.656 10.242,13.656 7.325,0 10.219,-14.195 10.262,-14.187 l 6.824,-88.739 c 0.285,-3.75 3.516,-6.59 7.332,-6.281 3.754,0.285 6.575,3.57 6.282,7.332 l -6.903,89.348 c -1.617,9.718 -8.449,26.18 -23.797,26.18 -18.902,0 -23.894,-17.868 -23.894,-27.309 V 54.961 c 0,-15.469 7.566,-30.871 22.48,-45.785 14.621,-14.629 35.903,-21.832 36.801,-22.133 0.719,-0.238 1.449,-0.348 2.16,-0.348 2.86,0 5.524,1.809 6.477,4.668 C 5.516,-5.058 3.579,-1.195 0,0" /></g><g
           transform="translate(174.0859,218.4569)"
           id="g48"><path
             id="path50"
             style="fill:#cdcdcd;fill-opacity:1;fill-rule:nonzero;stroke:none"
             d="m 0,0 c -15.344,0 -22.18,-16.461 -23.871,-26.782 l -6.828,-88.746 c -0.293,-3.762 2.527,-7.047 6.281,-7.332 3.687,-0.281 7.047,2.524 7.332,6.281 l 6.754,88.145 c 0.023,0.152 2.926,14.781 10.332,14.781 9.605,0 10.219,-11.402 10.242,-13.656 v -122.879 c 0,-11.715 -6.219,-23.871 -18.48,-36.133 -12.301,-12.301 -31.286,-18.765 -31.473,-18.836 -3.57,-1.199 -5.5,-5.062 -4.309,-8.633 0.957,-2.855 3.622,-4.664 6.473,-4.664 0.719,0 1.441,0.118 2.16,0.348 0.899,0.301 22.18,7.504 36.801,22.133 14.914,14.914 22.48,30.316 22.48,45.785 V -27.309 C 23.894,-17.868 18.902,0 0,0" /></g><g
           transform="translate(393.2231,12.2895)"
           id="g52"><path
             id="path54"
             style="fill:#cdcdcd;fill-opacity:1;fill-rule:nonzero;stroke:none"
             d="m 0,0 -81.996,61.495 c -4.321,3.152 -8.997,14.317 -10.922,22.801 l -20.539,136.86 c -1.489,7.456 -2.895,14.663 -4.254,21.6 -12.18,62.322 -19.532,99.943 -43.399,99.943 -14.355,0 -20.48,-6.121 -20.48,-20.481 0,-13.755 6.57,-99.285 6.847,-102.926 0.29,-3.747 3.579,-6.566 7.332,-6.281 3.754,0.288 6.575,3.571 6.282,7.332 -0.067,0.886 -6.805,88.64 -6.805,101.875 0,6.827 0.129,6.827 6.824,6.827 12.625,0 21.063,-43.187 30.004,-88.909 1.352,-6.949 2.766,-14.179 4.207,-21.328 l 20.567,-137.024 c 0.539,-2.375 5.55,-23.491 16.222,-31.265 l 81.918,-61.442 c 1.231,-0.922 2.668,-1.366 4.09,-1.366 2.074,0 4.129,0.944 5.469,2.729 C 3.625,-6.539 3.015,-2.259 0,0" /></g><g
           transform="translate(372.8442,99.8822)"
           id="g56"><path
             id="path58"
             style="fill:#e63967;fill-opacity:1;fill-rule:nonzero;stroke:none"
             d="m 0,0 c 1.082,-0.621 2.254,-0.914 3.41,-0.914 2.359,0 4.652,1.223 5.918,3.414 1.883,3.262 0.769,7.441 -2.5,9.325 l -48.57,28.05 c -3.278,1.887 -7.442,0.766 -9.329,-2.504 -1.882,-3.266 -0.769,-7.434 2.5,-9.328 z" /></g><g
           transform="translate(402.7929,211.6171)"
           id="g60"><path
             id="path62"
             style="fill:#e63967;fill-opacity:1;fill-rule:nonzero;stroke:none"
             d="m 0,0 h -81.934 c -3.765,0 -6.824,-3.059 -6.824,-6.828 0,-3.77 3.059,-6.829 6.824,-6.829 H 0 c 3.769,0 6.828,3.055 6.828,6.829 C 6.828,-3.059 3.769,0 0,0" /></g><g
           transform="translate(211.6328,402.7768)"
           id="g64"><path
             id="path66"
             style="fill:#e63967;fill-opacity:1;fill-rule:nonzero;stroke:none"
             d="m 0,0 c 0,3.765 -3.059,6.824 -6.824,6.824 -3.77,0 -6.829,-3.059 -6.829,-6.824 v -20.481 c 0,-3.769 3.059,-6.828 6.829,-6.828 3.765,0 6.824,3.059 6.824,6.828 z" /></g><g
           transform="translate(177.5,354.9882)"
           id="g68"><path
             id="path70"
             style="fill:#cdcdcd;fill-opacity:1;fill-rule:nonzero;stroke:none"
             d="m 0,0 c -23.867,0 -31.219,-37.621 -43.398,-99.942 -1.356,-6.933 -2.762,-14.144 -4.313,-21.925 l -20.5,-136.692 c -1.078,-8.5 -6.379,-19.789 -10.98,-22.699 l -81.918,-61.438 c -3.02,-2.262 -3.625,-6.542 -1.368,-9.558 1.34,-1.789 3.395,-2.731 5.469,-2.731 1.422,0 2.86,0.445 4.09,1.367 l 81.441,61.11 c 9.43,5.89 15.606,22.718 16.786,32.086 l 20.421,136.207 c 1.5,7.473 2.915,14.703 4.266,21.652 8.942,45.727 17.379,88.91 30.004,88.91 6.695,0 6.824,0 6.824,-6.824 0,-13.238 -6.738,-100.988 -6.804,-101.875 -0.293,-3.761 2.523,-7.047 6.281,-7.332 3.711,-0.281 7.035,2.528 7.332,6.281 0.277,3.637 6.844,89.168 6.844,102.926 C 20.48,-6.121 14.355,0 0,0" /></g></g></g></g></svg>