<?xml version="1.0" encoding="UTF-8" standalone="no"?>
<svg
   xmlns:dc="http://purl.org/dc/elements/1.1/"
   xmlns:cc="http://creativecommons.org/ns#"
   xmlns:rdf="http://www.w3.org/1999/02/22-rdf-syntax-ns#"
   xmlns:svg="http://www.w3.org/2000/svg"
   xmlns="http://www.w3.org/2000/svg"
   viewBox="0 0 436.90668 546.00934"
   height="546.00934"
   width="436.90668"
   xml:space="preserve"
   id="svg2"
   version="1.1"><metadata
     id="metadata8"><rdf:RDF><cc:Work
         rdf:about=""><dc:format>image/svg+xml</dc:format><dc:type
           rdf:resource="http://purl.org/dc/dcmitype/StillImage" /></cc:Work></rdf:RDF></metadata><defs
     id="defs6"><clipPath
       id="clipPath18"
       clipPathUnits="userSpaceOnUse"><path
         id="path16"
         d="M 0,409.507 H 327.68 V 0 H 0 Z" /></clipPath></defs><g
     transform="matrix(1.3333333,0,0,-1.3333333,0,546.00933)"
     id="g10"><g
       id="g12"><g
         clip-path="url(#clipPath18)"
         id="g14"><g
           transform="translate(34.1369,110.3907)"
           id="g20"><path
             id="path22"
             style="fill:#cdcdcd;fill-opacity:1;fill-rule:nonzero;stroke:none"
             d="m 0,0 c -6.36,4.402 -20.485,16.77 -20.485,39.797 0,23.109 14.067,35.402 20.465,39.802 C 6.343,75.195 20.472,62.832 20.472,39.797 20.476,16.703 6.418,4.406 0,0 m 34.129,-46.246 c 0,0.138 0.21,13.798 8.921,22.509 8.711,8.711 22.364,8.922 22.481,8.922 h 9.555 v -9.533 c 0,-0.135 -0.211,-13.797 -8.922,-22.507 -8.641,-8.641 -22.153,-8.915 -22.5,-8.921 h -9.535 z m 75.093,-50.487 H 34.129 v 27.303 h 9.554 c 0.785,0 19.356,0.154 32.133,12.922 12.773,12.781 12.926,31.348 12.926,32.137 v 16.384 c 0,3.764 -3.059,6.823 -6.828,6.823 H 65.531 c -0.785,0 -19.356,-0.148 -32.133,-12.922 -6.289,-6.293 -9.512,-13.973 -11.168,-20.262 -1.269,1.352 -2.535,2.658 -3.754,3.879 -5.723,5.719 -10.383,10.396 -11.43,18.785 8.403,5.606 27.083,21.438 27.083,51.481 0,37.914 -29.813,53.259 -31.083,53.898 -1.917,0.957 -4.183,0.957 -6.101,0 -1.27,-0.639 -31.082,-15.984 -31.082,-53.898 0,-30.616 19.422,-46.495 27.57,-51.819 1.305,-13.869 9.02,-21.732 15.387,-28.099 6.516,-6.516 11.656,-11.651 11.656,-22.481 v -34.131 h -6.828 c -3.769,0 -6.828,-3.06 -6.828,-6.83 0,-3.769 3.059,-6.828 6.828,-6.828 h 95.574 c 3.774,0 6.824,3.059 6.824,6.828 0,3.77 -3.05,6.83 -6.824,6.83" /></g><g
           transform="translate(218.4528,68.2696)"
           id="g24"><path
             id="path26"
             style="fill:#cdcdcd;fill-opacity:1;fill-rule:nonzero;stroke:none"
             d="m 0,0 h -13.656 c -0.168,0 -17.789,0.138 -29.305,11.652 -11.41,11.407 -11.652,29.15 -11.652,29.305 v 13.656 h 13.652 c 0.172,0 17.781,-0.129 29.309,-11.651 C -0.246,31.552 0,13.809 0,13.652 Z m 13.652,54.613 c 0,0.176 0.137,17.789 11.653,29.305 11.406,11.41 29.148,11.656 29.308,11.656 H 68.266 V 81.918 c 0,-0.176 -0.137,-17.78 -11.653,-29.305 C 45.285,41.285 27.715,40.966 27.293,40.957 H 13.652 Z M 102.398,-54.612 H 13.652 v 81.918 h 13.653 c 0.957,0 23.484,0.178 38.961,15.651 15.476,15.477 15.652,38.005 15.652,38.961 v 20.48 c 0,3.77 -3.051,6.829 -6.824,6.829 H 54.613 c -0.957,0 -23.484,-0.179 -38.961,-15.657 -0.703,-0.711 -1.351,-1.445 -2,-2.182 v 58.796 c 0,3.77 -3.05,6.828 -6.828,6.828 C 3.051,157.012 0,153.954 0,150.184 V 50.427 c -0.648,0.737 -1.297,1.475 -2,2.186 -15.477,15.473 -38.004,15.653 -38.961,15.653 h -20.48 c -3.774,0 -6.825,-3.059 -6.825,-6.828 V 40.957 c 0,-0.952 0.176,-23.48 15.653,-38.957 15.476,-15.477 38.004,-15.655 38.961,-15.655 H 0 v -40.957 h -6.828 c -3.774,0 -6.824,-3.06 -6.824,-6.829 0,-3.77 3.05,-6.829 6.824,-6.829 h 109.226 c 3.778,0 6.829,3.059 6.829,6.829 0,3.769 -3.055,6.829 -6.829,6.829" /></g><g
           transform="translate(215.508,316.7461)"
           id="g28"><path
             id="path30"
             style="fill:#cdcdcd;fill-opacity:1;fill-rule:nonzero;stroke:none"
             d="m 0,0 c 0.043,0.039 0.097,0.047 0.136,0.086 0.051,0.051 0.055,0.106 0.098,0.153 2.465,2.41 5.824,3.906 9.535,3.906 3.715,0 7.074,-1.496 9.531,-3.906 C 19.347,0.192 19.355,0.137 19.402,0.086 19.445,0.047 19.5,0.039 19.539,0 c 2.39,-2.457 3.886,-5.812 3.886,-9.511 0,-7.528 -6.125,-13.653 -13.656,-13.653 -7.527,0 -13.652,6.125 -13.652,13.653 0,3.699 1.496,7.054 3.883,9.511 m -31.192,-57.332 c 1.75,0 3.496,0.668 4.828,2 l 22.372,22.371 c 4.054,-2.39 8.726,-3.855 13.761,-3.855 5.039,0 9.707,1.469 13.762,3.855 l 22.371,-22.371 c 1.332,-1.332 3.082,-2 4.828,-2 1.746,0 3.496,0.668 4.828,2 2.668,2.668 2.668,6.985 0,9.653 l -22.359,22.363 c 2.402,4.07 3.879,8.754 3.879,13.805 0,5.047 -1.469,9.707 -3.86,13.761 l 22.34,22.336 c 2.668,2.672 2.668,6.985 0,9.657 -2.672,2.668 -6.984,2.668 -9.656,0 L 23.574,13.911 c -4.063,2.41 -8.746,3.882 -13.805,3.882 -5.058,0 -9.742,-1.472 -13.808,-3.882 l -22.325,22.332 c -2.668,2.668 -6.984,2.668 -9.652,0 -2.672,-2.672 -2.672,-6.985 0,-9.657 L -13.68,4.25 c -2.391,-4.054 -3.855,-8.714 -3.855,-13.761 0,-5.051 1.472,-9.735 3.875,-13.805 l -22.356,-22.363 c -2.672,-2.668 -2.672,-6.985 0,-9.653 1.332,-1.328 3.078,-2 4.824,-2" /></g><g
           transform="translate(184.3161,13.6573)"
           id="g32"><path
             id="path34"
             style="fill:#cdcdcd;fill-opacity:1;fill-rule:nonzero;stroke:none"
             d="m 0,0 h -13.652 c -3.774,0 -6.824,-3.06 -6.824,-6.829 0,-3.77 3.05,-6.828 6.824,-6.828 H 0 c 3.778,0 6.828,3.058 6.828,6.828 C 6.828,-3.06 3.778,0 0,0" /></g><g
           transform="translate(184.5622,300.9571)"
           id="g36"><path
             id="path38"
             style="fill:#e63967;fill-opacity:1;fill-rule:nonzero;stroke:none"
             d="m 0,0 c 2.528,1.071 4.164,3.547 4.164,6.293 -0.007,2.743 -1.652,5.215 -4.183,6.282 -0.231,0.101 -23.953,10.164 -33.969,20.187 -8.808,8.813 -13.519,17.434 -13.976,25.633 -0.461,8.266 3.476,16.629 11.71,24.863 16.364,16.348 32.7,15.434 50.454,-2.308 10.023,-10.028 20.125,-33.743 20.226,-33.985 1.067,-2.523 3.551,-4.164 6.289,-4.164 2.742,0 5.223,1.641 6.289,4.164 2.797,6.629 11.883,25.641 20.227,33.985 17.75,17.738 34.09,18.664 50.453,2.3 8.234,-8.226 12.172,-16.589 11.711,-24.855 -0.457,-8.199 -5.168,-16.82 -13.977,-25.633 C 105.383,22.719 81.625,12.395 81.387,12.301 78.868,11.207 77.25,8.719 77.266,5.973 c 0.027,-2.742 1.691,-5.207 4.23,-6.254 0.235,-0.101 23.922,-9.945 33.922,-19.953 8.817,-8.809 13.52,-17.43 13.977,-25.613 0.461,-8.254 -3.477,-16.61 -11.711,-24.844 -7.793,-7.805 -15.707,-11.754 -23.516,-11.754 -8.593,0 -17.652,4.703 -26.937,13.988 -10.024,10.02 -20.133,33.743 -20.227,33.981 -1.066,2.527 -3.55,4.172 -6.289,4.172 -2.742,0 -5.222,-1.645 -6.289,-4.172 -2.797,-6.629 -11.883,-25.649 -20.226,-33.981 -17.727,-17.73 -34.086,-18.609 -50.454,-2.234 -8.234,8.234 -12.171,16.582 -11.71,24.824 0.457,8.176 5.16,16.785 13.976,25.598 C -23.964,-10.242 -0.238,-0.105 0,0 m -61.593,-45.097 c -0.692,-12.297 4.586,-24.153 15.679,-35.246 21.614,-21.618 46.641,-20.899 69.77,2.23 6.437,6.43 12.531,16.774 16.859,25.102 4.328,-8.321 10.426,-18.672 16.863,-25.102 11.938,-11.934 24.247,-17.988 36.583,-17.988 h 0.007 c 11.559,0 22.719,5.297 33.18,15.758 11.094,11.093 16.367,22.957 15.68,35.265 -0.657,11.633 -6.7,23.239 -17.953,34.496 -6.426,6.438 -16.762,12.457 -25.082,16.715 8.316,4.383 18.656,10.543 25.082,16.973 11.253,11.258 17.296,22.871 17.953,34.515 0.687,12.325 -4.586,24.196 -15.68,35.29 C 105.762,114.5 80.727,113.743 57.578,90.602 51.141,84.172 45.043,73.821 40.715,65.5 36.387,73.821 30.293,84.172 23.856,90.602 0.711,113.743 -24.32,114.496 -45.914,92.911 -57.007,81.817 -62.285,69.946 -61.593,57.621 -60.941,45.977 -54.898,34.364 -43.64,23.106 -37.211,16.668 -26.859,10.578 -18.539,6.266 -26.859,1.93 -37.211,-4.187 -43.64,-10.617 -54.898,-21.875 -60.941,-33.48 -61.593,-45.097" /></g></g></g></g></svg>