<?xml version="1.0" encoding="UTF-8" standalone="no"?>
<svg
   xmlns:dc="http://purl.org/dc/elements/1.1/"
   xmlns:cc="http://creativecommons.org/ns#"
   xmlns:rdf="http://www.w3.org/1999/02/22-rdf-syntax-ns#"
   xmlns:svg="http://www.w3.org/2000/svg"
   xmlns="http://www.w3.org/2000/svg"
   viewBox="0 0 400.66132 511.96799"
   height="511.96799"
   width="400.66132"
   xml:space="preserve"
   id="svg2"
   version="1.1"><metadata
     id="metadata8"><rdf:RDF><cc:Work
         rdf:about=""><dc:format>image/svg+xml</dc:format><dc:type
           rdf:resource="http://purl.org/dc/dcmitype/StillImage" /></cc:Work></rdf:RDF></metadata><defs
     id="defs6"><clipPath
       id="clipPath18"
       clipPathUnits="userSpaceOnUse"><path
         id="path16"
         d="M 0,383.976 H 300.496 V 0 H 0 Z" /></clipPath></defs><g
     transform="matrix(1.3333333,0,0,-1.3333333,0,511.968)"
     id="g10"><g
       id="g12"><g
         clip-path="url(#clipPath18)"
         id="g14"><g
           transform="translate(275.196,356.4734)"
           id="g20"><path
             id="path22"
             style="fill:#cdcdcd;fill-opacity:1;fill-rule:nonzero;stroke:none"
             d="M 0,0 C -0.426,0 -0.856,-0.043 -1.274,-0.129 -42.981,-8.672 -86.375,-0.98 -122.606,21.375 l -8.441,5.184 c -2.055,1.258 -4.641,1.258 -6.696,0 l -8.441,-5.184 c -36.234,-22.343 -79.625,-30.027 -121.328,-21.48 -3.465,0.707 -6.848,-1.528 -7.551,-4.988 -0.09,-0.43 -0.133,-0.864 -0.133,-1.301 v -196.739 c -0.008,-25.282 6.715,-50.114 19.485,-71.933 14.617,-25.138 36.855,-44.974 63.492,-56.634 l 55.265,-24.237 c 1.633,-0.715 3.489,-0.715 5.122,0 l 55.281,24.237 c 3.109,1.364 6.172,2.841 9.152,4.423 3.125,1.655 4.309,5.53 2.653,8.655 -1.657,3.122 -5.532,4.31 -8.657,2.654 -2.703,-1.434 -5.469,-2.77 -8.289,-4.008 l -52.703,-23.11 -52.684,23.089 c -24.167,10.591 -44.339,28.595 -57.601,51.407 -11.617,19.868 -17.734,42.468 -17.715,65.485 v 189.062 c 42.578,-6.8 86.18,1.907 122.883,24.532 l 5.117,3.128 5.121,-3.121 c 36.695,-22.64 80.305,-31.347 122.879,-24.539 v -189.062 c 0,-3.535 2.867,-6.399 6.402,-6.399 3.532,0 6.399,2.864 6.399,6.399 V -6.394 C 6.402,-2.859 3.535,0.004 0,0" /></g><g
           transform="translate(140.3361,335.93)"
           id="g24"><path
             id="path26"
             style="fill:#e63967;fill-opacity:1;fill-rule:nonzero;stroke:none"
             d="M 0,0 C -1.652,3.125 -5.523,4.321 -8.648,2.668 -8.812,2.582 -8.976,2.489 -9.133,2.387 c -29.523,-17.297 -64.351,-23.195 -97.921,-16.582 -3.461,0.707 -6.844,-1.527 -7.551,-4.992 -0.086,-0.426 -0.129,-0.856 -0.129,-1.289 v -152.895 c 0.012,-20.034 5.574,-39.676 16.07,-56.741 12.258,-19.985 30.52,-35.578 52.176,-44.56 3.258,-1.367 7.008,0.172 8.375,3.43 1.367,3.263 -0.168,7.013 -3.43,8.38 -19.176,7.944 -35.351,21.75 -46.207,39.444 -9.258,15.051 -14.168,32.375 -14.183,50.047 v 145.317 c 34.332,-4.989 69.339,1.855 99.265,19.406 C 0.457,-6.996 1.653,-3.125 0,0" /></g><g
           transform="translate(298.2932,62.1019)"
           id="g28"><path
             id="path30"
             style="fill:#cdcdcd;fill-opacity:1;fill-rule:nonzero;stroke:none"
             d="m 0,0 c -2.398,2.086 -5.961,2.095 -8.371,0.021 l -30.605,-30.603 c -2.133,0.638 -4.407,0.638 -6.539,0 l -56.207,56.203 c -2.539,2.457 -6.594,2.388 -9.047,-0.155 -2.395,-2.481 -2.395,-6.414 0,-8.895 l 56.199,-56.204 c -1.899,-6.718 2.016,-13.703 8.734,-15.596 1.153,-0.325 2.348,-0.486 3.547,-0.474 7.067,0 12.797,5.731 12.797,12.802 -0.012,1.104 -0.176,2.207 -0.477,3.268 L 0.633,-9.026 C 2.953,-6.358 2.668,-2.315 0,0" /></g><g
           transform="translate(128.0041,137.0482)"
           id="g32"><path
             id="path34"
             style="fill:#cdcdcd;fill-opacity:1;fill-rule:nonzero;stroke:none"
             d="M 0,0 -42.125,42.152 -25.601,58.703 -4.48,37.625 c 2.5,-2.497 6.55,-2.497 9.047,0 L 83.199,116.3 99.774,99.75 Z m 113.324,104.277 -25.601,25.598 c -2.5,2.5 -6.551,2.5 -9.051,0 L 0,51.199 -21.078,72.277 c -2.496,2.496 -6.551,2.496 -9.047,0 L -55.726,46.675 c -2.496,-2.5 -2.496,-6.55 0,-9.05 l 51.199,-51.2 c 1.199,-1.198 2.828,-1.875 4.527,-1.875 1.696,0 3.324,0.677 4.524,1.875 l 108.8,108.801 c 2.496,2.5 2.496,6.551 0,9.051" /></g></g></g></g></svg>